<svg xmlns="http://www.w3.org/2000/svg" viewBox="0 0 561.93 183.66"><path d="M0,156.69V25.89H58.18a27.9,27.9,0,0,1,20.47,8.59A28,28,0,0,1,87.2,54.91v7.36q0,12.74-7.26,20t-21.76,9q14.5,0,21.76,8.76a30.79,30.79,0,0,1,7.26,20.26v7.36a27.89,27.89,0,0,1-8.62,20.4,27.88,27.88,0,0,1-20.4,8.62ZM29,84.07H43.6A14.77,14.77,0,0,0,58.18,69.49V54.91a13.8,13.8,0,0,0-4.33-10.18A14.11,14.11,0,0,0,43.6,40.47H29Zm0,58H43.6a14.06,14.06,0,0,0,10.25-4.29,13.83,13.83,0,0,0,4.33-10.15V113.09q0-14.58-14.58-14.58H29Z" fill="#d43883"/><path d="M153,26.89h29V128.67a29.32,29.32,0,0,1-29,29H123.8a29.19,29.19,0,0,1-29-29V26.89h29V128.67a14.58,14.58,0,0,0,29.15,0Z" fill="#d43883"/><path d="M191,157.69V26.89h29.09v130.8Z" fill="#d43883"/><path d="M230.31,157.69V26.89h29V131.11h43.6v26.58Z" fill="#d43883"/><path d="M309.75,157.69V26.89H365.4A26.09,26.09,0,0,1,385,35.48a28.56,28.56,0,0,1,8.18,20.43v72.76a28.59,28.59,0,0,1-8.18,20.4,26,26,0,0,1-19.57,8.62Zm27.76-18.58h13.94a13.09,13.09,0,0,0,9.87-4.29c2.72-2.86,4.08-2.24,4.08-10.15V56.91c0,.05-1.38-5.34-4.14-8.18a13.22,13.22,0,0,0-9.81-4.26H337.51Z" fill="#d43883"/><path d="M403.42,157.69V55.91A27.94,27.94,0,0,1,412,35.44a28.12,28.12,0,0,1,20.47-8.75h57.63l.55,131h-29V99.51H432.44v58.18Zm29-72.62H461.6V42.47H447s-6.72.32-10.29,3.26c-3.11,2.56-4.29,6.23-4.29,10.18Z" fill="#d43883"/><rect width="490.62" height="15.01" fill="#d43883"/><rect x="337.51" y="168.3" width="224.42" height="15.29" fill="#d43883"/><rect x="502.36" y="144.23" width="59.56" height="15.29" fill="#d43883"/><path d="M.45,169.72H13.32v3.38H9v10.32H4.77V173.1H.45Z" fill="#575756"/><path d="M15.26,169.72h4.23v4.79h4.63v-4.79h4.25v13.7H24.12v-5.54H19.49v5.54H15.26Z" fill="#575756"/><path d="M31.17,169.72H42.52v2.92H35.41v2.18H42v2.79H35.41v2.71h7.31v3.1H31.17Z" fill="#575756"/><path d="M51.38,169.72H62.72v2.92h-7.1v2.18h6.59v2.79H55.62v2.71h7.31v3.1H51.38Z" fill="#575756"/><path d="M63.86,169.72h4.43l3.08,9.86,3-9.86h4.29l-5.09,13.7H69Z" fill="#575756"/><path d="M80.09,169.72H91.43v2.92h-7.1v2.18h6.59v2.79H84.33v2.71h7.31v3.1H80.09Z" fill="#575756"/><path d="M94,183.42v-13.7H101a10.43,10.43,0,0,1,3,.33,3.2,3.2,0,0,1,1.67,1.25,3.86,3.86,0,0,1-1.19,5.53,4.91,4.91,0,0,1-1.48.54,4.24,4.24,0,0,1,1.1.51,4.08,4.08,0,0,1,.68.72,5.35,5.35,0,0,1,.59.85l2,4h-4.78l-2.27-4.19a3.31,3.31,0,0,0-.76-1.06,1.79,1.79,0,0,0-1-.31h-.37v5.56Zm4.26-8.15H100a6,6,0,0,0,1.12-.19,1.11,1.11,0,0,0,.69-.43,1.38,1.38,0,0,0-.15-1.81,2.52,2.52,0,0,0-1.58-.36H98.23Z" fill="#575756"/><path d="M106.6,169.72h4.7l2.76,4.62,2.77-4.62h4.68l-5.33,8v5.74h-4.24v-5.74Z" fill="#575756"/><path d="M121.91,169.72h12.87v3.38h-4.32v10.32h-4.23V173.1h-4.32Z" fill="#575756"/><path d="M136.71,169.72H141v4.79h4.62v-4.79h4.25v13.7h-4.25v-5.54H141v5.54h-4.24Z" fill="#575756"/><path d="M152.8,169.72h4.25v13.7H152.8Z" fill="#575756"/><path d="M160.11,169.72h4l5.15,7.58v-7.58h4v13.7h-4l-5.13-7.52v7.52h-4Z" fill="#575756"/><path d="M182.92,178.45v-2.84h6.54v5.84a13.55,13.55,0,0,1-3.32,1.74,11.3,11.3,0,0,1-3.43.46,8.4,8.4,0,0,1-4-.83,5.66,5.66,0,0,1-2.38-2.48,8.15,8.15,0,0,1-.84-3.77,7.81,7.81,0,0,1,.92-3.9,6,6,0,0,1,2.71-2.52,8.71,8.71,0,0,1,3.75-.67,10.73,10.73,0,0,1,3.4.41,4.38,4.38,0,0,1,1.86,1.28,5.67,5.67,0,0,1,1.12,2.19l-4.08.73a2.26,2.26,0,0,0-.86-1.19,2.69,2.69,0,0,0-1.54-.41,2.78,2.78,0,0,0-2.21,1,4.61,4.61,0,0,0-.83,3.06,4.87,4.87,0,0,0,.83,3.18,3,3,0,0,0,2.34,1,4.64,4.64,0,0,0,1.35-.2,7.76,7.76,0,0,0,1.48-.71v-1.29Z" fill="#575756"/><path d="M205.24,178.45v-2.84h6.54v5.84a13.38,13.38,0,0,1-3.32,1.74,11.19,11.19,0,0,1-3.42.46,8.4,8.4,0,0,1-4-.83,5.66,5.66,0,0,1-2.38-2.48,8,8,0,0,1-.85-3.77,7.81,7.81,0,0,1,.93-3.9,5.92,5.92,0,0,1,2.71-2.52,8.68,8.68,0,0,1,3.75-.67,10.62,10.62,0,0,1,3.39.41,4.41,4.41,0,0,1,1.87,1.28,5.67,5.67,0,0,1,1.12,2.19l-4.09.73a2.19,2.19,0,0,0-.85-1.19,2.71,2.71,0,0,0-1.54-.41,2.79,2.79,0,0,0-2.22,1,4.67,4.67,0,0,0-.82,3.06,4.81,4.81,0,0,0,.83,3.18,3,3,0,0,0,2.33,1,4.66,4.66,0,0,0,1.36-.2,7.44,7.44,0,0,0,1.47-.71v-1.29Z" fill="#575756"/><path d="M214.29,169.72h11.35v2.92h-7.11v2.18h6.59v2.79h-6.59v2.71h7.31v3.1H214.29Z" fill="#575756"/><path d="M228.15,169.72h3.95l5.16,7.58v-7.58h4v13.7h-4l-5.13-7.52v7.52h-4Z" fill="#575756"/><path d="M244.06,169.72H255.4v2.92h-7.1v2.18h6.59v2.79H248.3v2.71h7.31v3.1H244.06Z" fill="#575756"/><path d="M257.94,183.42v-13.7H265a10.43,10.43,0,0,1,3,.33,3.2,3.2,0,0,1,1.67,1.25,3.86,3.86,0,0,1-1.19,5.53,4.91,4.91,0,0,1-1.48.54,4.24,4.24,0,0,1,1.1.51,4.49,4.49,0,0,1,.68.72,5.35,5.35,0,0,1,.59.85l2.05,4h-4.78l-2.27-4.19a3.31,3.31,0,0,0-.76-1.06,1.79,1.79,0,0,0-1-.31h-.37v5.56Zm4.26-8.15H264a6,6,0,0,0,1.12-.19,1.11,1.11,0,0,0,.69-.43,1.4,1.4,0,0,0-.16-1.81,2.5,2.5,0,0,0-1.58-.36H262.2Z" fill="#575756"/><path d="M281.2,181.16h-4.81l-.67,2.26H271.4l5.15-13.7h4.62l5.15,13.7h-4.44Zm-.88-3-1.51-4.92-1.5,4.92Z" fill="#575756"/><path d="M285.38,169.72h12.87v3.38h-4.32v10.32H289.7V173.1h-4.32Z" fill="#575756"/><path d="M299,176.58a6.49,6.49,0,0,1,7.07-7.1,7.2,7.2,0,0,1,5.28,1.84,6.93,6.93,0,0,1,1.85,5.14,8.39,8.39,0,0,1-.81,3.94,5.76,5.76,0,0,1-2.34,2.4,7.72,7.72,0,0,1-3.81.85,8.63,8.63,0,0,1-3.83-.74,5.76,5.76,0,0,1-2.47-2.33A7.77,7.77,0,0,1,299,176.58Zm4.23,0a4.57,4.57,0,0,0,.78,3,2.93,2.93,0,0,0,4.21,0,5.16,5.16,0,0,0,.74-3.19,4.25,4.25,0,0,0-.78-2.83,2.67,2.67,0,0,0-2.11-.89,2.56,2.56,0,0,0-2.06.91A4.57,4.57,0,0,0,303.21,176.6Z" fill="#575756"/><path d="M315.51,183.42v-13.7h7.06a10.43,10.43,0,0,1,3,.33,3.2,3.2,0,0,1,1.67,1.25,3.82,3.82,0,0,1,.64,2.22,3.86,3.86,0,0,1-.49,2,3.74,3.74,0,0,1-1.34,1.34,4.91,4.91,0,0,1-1.48.54,4.24,4.24,0,0,1,1.1.51,4.49,4.49,0,0,1,.68.72,5.35,5.35,0,0,1,.59.85l2.05,4H324.2l-2.26-4.19a3.31,3.31,0,0,0-.76-1.06,1.79,1.79,0,0,0-1-.31h-.38v5.56Zm4.25-8.15h1.79a6,6,0,0,0,1.12-.19,1.11,1.11,0,0,0,.69-.43,1.4,1.4,0,0,0-.16-1.81,2.5,2.5,0,0,0-1.58-.36h-1.86Z" fill="#575756"/></svg>