<?xml version="1.0" standalone="no"?>
<!DOCTYPE svg PUBLIC "-//W3C//DTD SVG 20010904//EN"
 "http://www.w3.org/TR/2001/REC-SVG-20010904/DTD/svg10.dtd">
<svg version="1.0" xmlns="http://www.w3.org/2000/svg"
 width="516.000000pt" height="516.000000pt" viewBox="0 0 516.000000 516.000000"
 preserveAspectRatio="xMidYMid meet">
<metadata>
Created by potrace 1.14, written by Peter Selinger 2001-2017
</metadata>
<g transform="translate(0.000000,516.000000) scale(0.100000,-0.100000)"
fill="#000000" stroke="none">
<path d="M359 4438 c-1 -30 -1 -3709 0 -3725 1 -17 1699 -19 1801 -3 175 28
323 106 459 241 131 131 212 291 237 469 18 126 7 437 -20 563 -30 137 -151
335 -262 427 -105 87 -260 148 -423 165 -56 6 -82 15 -42 15 43 0 217 49 298
84 107 45 183 98 259 177 90 95 160 234 178 354 4 22 9 55 13 74 9 52 10 378
1 451 -42 327 -280 601 -609 702 l-74 22 -907 4 -908 3 -1 -23z m1370 -417
c114 -33 225 -138 276 -261 17 -40 19 -75 21 -328 1 -216 -2 -295 -12 -330
-43 -147 -160 -263 -300 -301 -35 -9 -239 -15 -456 -12 l-67 1 1 618 c0 339 2
620 4 623 7 12 487 3 533 -10z m27 -1668 c76 -19 107 -36 161 -86 47 -43 87
-118 100 -188 4 -24 8 -174 8 -334 0 -261 -2 -295 -19 -340 -50 -133 -176
-246 -302 -273 -27 -6 -153 -11 -280 -12 l-232 -1 0 626 -1 626 253 -1 c193
-1 268 -5 312 -17z"/>
<path d="M3089 1476 c0 -17 0 -197 -1 -401 l0 -370 856 -3 c756 -2 856 0 857
13 0 8 1 179 1 380 0 201 -1 376 -1 389 l-1 24 -855 0 -855 0 -1 -32z"/>
</g>
</svg>
